<?xml version="1.0" encoding="UTF-8"?>
<svg id="Layer_2" data-name="Layer 2" xmlns="http://www.w3.org/2000/svg" viewBox="0 0 483.43 476.05">
  <defs>
    <style>
      .cls-1 {
        fill: #669ede;
      }

      .cls-1, .cls-2, .cls-3, .cls-4, .cls-5, .cls-6, .cls-7, .cls-8, .cls-9, .cls-10, .cls-11, .cls-12, .cls-13, .cls-14 {
        fill-rule: evenodd;
        stroke-width: 0px;
      }

      .cls-2 {
        fill: #675f92;
      }

      .cls-3 {
        fill: #112653;
      }

      .cls-4 {
        fill: #1d3768;
      }

      .cls-5 {
        fill: #22397d;
      }

      .cls-6 {
        fill: #3b4f94;
      }

      .cls-7 {
        fill: #5c8cc4;
      }

      .cls-8 {
        fill: #ce96d9;
      }

      .cls-9 {
        fill: #bf5aab;
      }

      .cls-10 {
        fill: #cca6de;
      }

      .cls-11 {
        fill: #fefefe;
      }

      .cls-12 {
        fill: #ffd4e5;
      }

      .cls-13 {
        fill: #ffa8d9;
      }

      .cls-14 {
        fill: #68d9ea;
      }
    </style>
  </defs>
  <g id="katman_1" data-name="katman 1">
    <g id="Capa_2" data-name="Capa 2">
      <g id="Capa_1-2" data-name="Capa 1-2">
        <path class="cls-3" d="m408.32,107.93s6.36-5.61,13.06-22.69c6.69-17.09,10.81-33.77,22.28-34.19,11.47-.42,22.56,11.08,28.44,33.5,5.88,22.42,4.24,51.69-11.35,71.38,10.26,17.37,14.94,30.13,13.56,45.52,2.73,9.69,1.5,14.36,1.5,14.36l1.65,5.46s7.75,4.38,5.61,19.69c-2.14,15.31-16.28,30.99-33.9,35.01-3.55,5.73-14,6.95-17.5,7.11-3.28,7.24-21.31,9.43-21.31,9.43,0,0,10.26,9.3,12.1,20.17,1.84,10.87-3.76,20.79-3.76,20.79,5.77.01,11.13,3.02,14.15,7.93,5.43,8.48,2.05,15.06,2.05,15.06,0,0,10.53,2.91,11.49,9.99.96,7.08-8.07,13.4-8.07,13.4,0,0,6.15,17.78,1.23,22.15-4.92,4.37-7.39,3.01-7.39,3.01,0,0,1.09,10.05-3.21,9.43-2.73-.43-5.36-1.35-7.75-2.73,0,0,.14,13.33-4.45,12.1-4.58-1.23-4.84-6.15-8.54-5.54-3.7.61-6.7.97-6.7.97.31,2.9.97,5.75,1.99,8.48,1.43,3.27,2.8,9.23,1.43,10.11-1.37.88-4.65-1.23-8.82-1.57-1.97-.12-3.94-.37-5.88-.76,0,0,5.06,1.85,6.91,6.36,1.85,4.51,1.23,7.45-2.53,7.04-3.76-.41-12.01-1.59-12.01-1.59-3.97.18-7.94.14-11.9-.14-4.31-.48-4.45-.69-4.45-.69,0,0,4.38,5.19,4.11,11.15-.27,5.96-2.39,8.34-7.18,6.08-2.99-1.43-5.77-3.25-8.28-5.4,0,0-14.97,2.46-22.22-6.22-9.43,11.01-19.42,21.26-36.5,23.58-17.09,2.32-23.8-7.65-23.8-7.65l-14.53-15.86s-15.18-2.91-25.57-12.72c-10.39-9.81-12.3-16.41-12.3-16.41,0,0-8.91-2.31-12.69-4.6-13.74,3.01-43.42,7.66-62.42,1.71-19-5.95-30.5-25.71-30.5-25.71,0,0-23.25-.55-25.02-24.34-1.77-23.79,9.02-31.96,15.38-33.72-9.69-1.57-8-12.37-6.7-19,1.3-6.63,2.8-9.57,2.8-9.57,0,0-10.55-1.77-15.86-3.83,1.5,15.25,1.84,48.26-1.43,66.05-3.27,17.78-12.15,21.97-20.08,21.14s-8.2-15.59-1.09-29.26c7.11-13.67,8.36-23.53,4.11-65.52-10.81-5.81-36.92-23.9-55.8-54.4-18.88-30.5-8.47-41.02-.75-42.62,7.73-1.6,25.57,3.83,35.34,10.93,2.8.89,5.12,1.37,5.12,1.37,0,0-8.88-25.5,4.84-57.36,13.72-31.86,41.51-21.61,41.51-21.61.97-19.29.19-39.41,16.41-46.63,0,0-21.31-7.24-18.87-22.97,2.44-15.73,36.23-21.06,68.1-17.5,31.87,3.55,53.46,17.77,53.46,17.77,0,0,10.39-8.61,8.62-12.72-1.77-4.11-22.7-.28-22.7-.28-6.68-9.03-10.94-19.62-12.38-30.76-2.32-18.46,4.78-23.39,22.84-16.96,18.05,6.43,36.37,22.84,47.86,40.34,11.49,17.5,18.56,60.73,19.28,67.95,5.81,3.22,7.45,4.04,7.45,4.04,0,0,7.04-6.5,14.53-6.36,11.35-11.41,33.9-12.85,33.9-12.85,0,0,8.54-5.95,10.6-13.56,2.05-7.61,8.55-8.14,11.69-4.17,3.14,3.96,1.28,13.99,1.28,13.99,5.56-2.38,10.82-5.41,15.66-9.03,8.2-6.08,14.7-3,14.42,3.22-.28,6.22-7.52,10.46-7.52,10.46,0,0,8.88-5.68,14.91-9.69,6.02-4.01,13.56-.62,10.11,6.56-3.45,7.18-10.65,10.26-10.65,10.26,0,0,7.53.48,12.59,4.02v.08ZM117.39,335.04s3.58-9.9,6.88-16.99c3.3-7.09,3.3-7.22,3.3-7.22l-4.62.07s-6.47,20.64-9.63,23.94c4.95.41,4.06.2,4.06.2h0Zm174.64-88.51l-2.66,3s.2.35.81,5.34c.35,3.59.35,7.21,0,10.8,0,0,1.56-2.75,6.28-4.74,4.72-1.99,3.51-1.89,5.41-5.59-4.72-2.66-9.84-8.81-9.84-8.81Zm-219.52-26.75c1.94,1.78,18.6,8.89,32.81,20.23-.27-18.32-5.61-81.36-5.61-81.36,0,0-17.45-9.16-25.2,2.46-7.75,11.62-3.42,56.89-2.04,58.67h.04Zm51.75,32.93l15.5.07s-14.3-17.85-17.03-41.77c-.73-6.42-.32-19.15,1.94-25.77.74-2.22.86-3.6,2.31-4.04,0,0-4.31-4.7-7.17-6.6.85,9.09,4.27,59.52,4.48,78.11h-.03Zm-7.32-109.76c5.85,4.07,11.21,8.8,15.99,14.08,8.2-14.02,23.18-29.47,23.18-29.47,0,0-15.04-18.8-27.49-20.85-12.45-2.05-11.27,9.85-11.49,14.84s-.19,21.41-.19,21.41Z"/>
        <path class="cls-14" d="m390.65,245.52s24.21-35.14,4.65-78.36c-19.56-43.22-61.8-19.27-64.82,5.07-3.01,24.34-6.39,69.51,60.17,73.29h0Zm-55.01,85.65s10.26,2.26,17.1,2.12c6.84-.14,6.78-.27,6.78-.27,0,0-1.5,5.2-.48,9.57,1.02,4.37,3.87,8.48,1.51,16.69-2.36,8.2-3.49,11-3.49,11,0,0-7.75-12.5-12.45-18.18-4.7-5.68-10.05-8.89-8.96-20.93h0Zm-71.63,48.82s-1.23-12.31,7.93-24.61c9.16-12.3,15.99-14.53,15.99-14.53h3.55s-1.3,7.04-.47,19.22c.82,12.17,3.69,18.53,3.69,18.53,0,0-7.52-6.5-15.38-4.58-5.31,1.41-10.45,3.4-15.31,5.95v.03Zm53.62-117.77c-3.69-15.76,1.86-23.66,1.86-23.66,0,0,16.19,13.24,31.51,17.34,15.31,4.1,57.68,27.28,77.05,27.35-11.07,9.98-18.87,7.75-28.57,3.96-9.7-3.79-26.46-4.51-26.46-4.51,0,0,.47-1.3,1.43-3.69.56-1.44.52-3.04-.14-4.45.19-1.2.28-2.41.27-3.62.14-3.28-4.24-6.63-9.43-7.11s-7.89,4.75-7.89,4.75c0,0-5.16.62-3.04,7.66-11.67-1.5-36.58-14.02-36.58-14.02Zm9.47,5.99c-2.01,3.28.41,7.35.41,7.35,2.11.08,4.2.36,6.26.85,4.65.97,13.61,5.81,13.61,5.81.63-1.19,1.78-2.02,3.11-2.25,2.23-.35,2.32-2.81,2.32-2.81,0,0-2.53-.27-10.46-2.66-5.27-1.65-10.39-3.76-15.29-6.3h.05Z"/>
        <path class="cls-12" d="m282.67,115.18s-33.03-18.73-46.97-14.7c-13.95,4.03,17.23,32.48,37.26,45.33l2.19,1.41c4.37-.43,8.78.16,12.88,1.72,4.72,1.94,7.65,7.45,9.69,11.95,7.3,2,11.55-2.55,12.64-7.27,2.32-10.08-8.72-28.48-27.69-38.44h0Zm-76.81,164.65c-28.84,8.72-60.53-7.34-83.3-24.21-17.67-13.16-35.42-28.38-59.68-37.61-21.31-8.1-32.25-7.27-38.23-.46-10.28,11.68-1.67,35.22,4.84,46.13,3.72,6.23,25.29,31.96,64.95,40.61s79.03,2.05,111.44-24.46h-.03Zm61.45-11.77s-2.66,2.91-8.88,6.5c.1,2.09.08,4.19-.07,6.29,4.34,2.7,9.26,4.33,14.35,4.78,8.96-5.47,10.94-15.31,8.89-19.69,1.7,2.04,2.83,4.49,3.27,7.11,0,0,2.81-2.66,3.49-9.3.37-4.36.15-8.76-.68-13.06,0,0-6.43,8.47-13.4,12.92,11.42-12.85,43-43.82,44.92-89.77-5.61,11.22-14.91,24.34-14.91,24.34,0,0-9.3,25.18-27.21,41.71-17.91,16.52-36.18,22.42-36.18,22.42,0,0-.27,3.97,3.08,4.65,3.35.68,12.78-.54,13.34,1.85.55,2.39,1.09,5.74,9.98-.76h0Zm-48.79-203.14s9.03-5.74,8.82-13.26c-.2-7.52-5.47-6.97-24.27-5.2-9.03-9.84-13.95-31.58-10.12-40.07,3.83-8.48,20.51-2.73,38.97,12.59,18.46,15.32,24.48,44.97,24.61,57.7.14,12.73.97,24.68.97,24.68-1.21-.42-2.44-.76-3.69-1.03-8.21-15.07-35.29-35.41-35.29-35.41Zm14.66,256.55c3.6,1.14,7.14,2.49,10.6,4.03-6.29,1.43-15.25,12.11-20.34,21.41-3.01,5.31-4.91,11.17-5.59,17.23,0,0-4.65-7.39-11.83-5.34-7.18,2.05-8.96,9.64-8.96,9.64l-8.72.28c2.37-6.65,6.93-12.29,12.93-16,10.04-6.23,23.92-17.99,31.96-31.25h-.06Zm28.6-109.33c1.23,11.76-22.84,51.96-58.67,43.75-35.83-8.21-46.36-41.29-44.17-58.93,2.19-17.64,12.03-31.46,41.84-23.53,29.81,7.93,60.99,38.7,60.99,38.7Z"/>
        <path class="cls-10" d="m280.81,148.63s-9.43-1.3-20.03,7.19c-10.6,8.48-11.22,22.35-11.22,22.35,0,0,15.72.07,23.65-7.86,7.93-7.93,8.56-19.83,7.59-21.68Z"/>
        <path class="cls-8" d="m282.99,149.73c8.08,2.52,14.15,9.22,15.86,17.51,3.28,14.42,0,24.41,0,24.41-4.68,3.55-9.82,6.45-15.27,8.62-3.55-3.24-10.31-8.36-16.79-7.64-6.49.72-9.31,3.36-10.84,5.27-5.65-5.37-6.57-13.77-6.18-18.15,16.81-1.7,33.09-6.15,33.23-30.02Z"/>
        <path class="cls-2" d="m257.41,198.59s2.6-4.3,9.4-4.68c6.81-.38,15.11,6.63,15.11,6.63,0,0-17.3,5.39-24.51-1.96Z"/>
        <path class="cls-9" d="m132.04,47.29s-14.97,4.99-18.87,17.02c-2.29,6.99-.32,14.67,5.06,19.69l-3.62.82s-17.43-9.69-17.91-19.89c-.47-10.21,21.8-17.43,35.34-17.64h0ZM22.08,255.68s-6.49-19.14-3.87-30.99,14.97-14.84,22.83-14.53c-13.87-8.2-31.76-12.03-36.57-5.19-6.22,8.81,3.62,35.89,17.64,50.66l-.02.06Zm48.43,74.52c2.39,1.62,5.06,2.81,7.86,3.49,1.88.43,3.83.5,5.74.2,0,9.15-.15,22.87-1.94,31.52-4.94.55-13.38-.26-16.88-4.1,3.96-9.87,5.76-20.48,5.26-31.11h-.05Zm59.88-19.56s17.23-1.81,25.44-3.24c-3.12,13.44-13.34,37.88-26.81,36.1-13.47-1.78-7.61-15.56,1.4-32.86h-.04Z"/>
        <path class="cls-7" d="m361.34,333.49s4.17,4.84,8.92,5.3c3.07.25,6.16-.15,9.07-1.16-.05,1.87-.38,3.73-.97,5.5-.45,1.64-1.36,3.12-2.63,4.24,0,0-1.16-3.66-6.66-5.54-5.5-1.88-7.53-.72-7.53-.72,0,0-1.49-4.99-.19-7.62Z"/>
        <path class="cls-4" d="m387.23,237.72s13.56-26.15.69-47.03c-12.87-20.88-34.33-18.46-44.17-.14-12.76,23.74,19.67,46.1,43.48,47.17Zm-132.91-25.43s-15.04-16.69-36.37-15.73c-21.33.96-31.31,15.04-30.91,24.21-6.23,3.69-16.27,2.73-16.27,2.73,0,0,6.84,4.58,16.54.35-.07,8.88,11.96,21.53,36.3,18.66,24.34-2.87,30.91-26.15,30.7-30.22h0Zm15.9-109.7s3.08,9.69.76,14.36c-5.68-.35-7.01,15.74,1.57,24.88,1.94,2.05,4.02,3.97,6.22,5.74,3.17.03,6.31.66,9.26,1.84,3.38,1.39,5.97,5,7.96,8.41,17.72,4.77,8.37-21.1-.53-28.91-12.17-10.65-20.51-11.83-20.51-11.83,0,0-1.15-11.08-4.71-14.5h0Z"/>
        <path class="cls-6" d="m410.48,235.28s2.21-18.89,14.53-21.74,41.02,1.65,52.1,11.89c11.08,10.25-3.68,38.27-19.69,46.08-8.49,4.15-22.2,5.91-32.66.18-.97-3.77,1.09-8.28,2.85-13.85,2.32-7.39.11-17.65-7.35-20.24-3.39-1.18-7.01-.15-9.97,1.31.05-1.17.12-2.38.22-3.63h-.03Zm-181.18,107.79s11.69,19.76,10.65,30.7c-1.04,10.94-6.15,13.4-14.43,11.49-8.28-1.91-9.37-4.84-9.37-4.84,0,0,3.62-30.22,13.13-37.34h0Zm9.52-12.59s3.49,7.24,10.87,8.34c7.38,1.09,8.96-6.23,8.96-6.23l-11.69-6.01s-5.92.21-8.14,3.87v.03Zm17.2,101.27s1.44-5.34,6.01-5.88c4.57-.54,6.23,7.04,4.73,10.94-1.5,3.89-11.62,3.63-10.74-5.06Zm20.45-30.85c2.17-1.11,4.71-1.23,6.97-.34,3.55,1.57,5.61,5.54.82,9.03-4.78,3.49-8.45,2.91-9.77.16-1.33-2.74-1.2-5.95,1.94-8.85h.04Zm47.59-7.75s5.68-.2,6.05,6.05c.38,6.26-7.38,5.88-11.89,2.49-4.51-3.39-1.3-8.27,5.81-8.54h.03Zm-36.8,55.07s8.34-18.33,23.25-23.11c14.91-4.78,19.56,5.47,15.04,17.5-4.51,12.03-20.17,21.31-20.17,21.31,0,0,6.42-10.19,8.07-18.19,1.65-8-1.31-10.73-1.31-10.73,0,0,2.54,9.57-4.16,20.34-6.7,10.77-13.27,11.97-19.15,9.99-5.88-1.99-3.83-11.76-1.57-17.1h0Zm79.91,13.7c1.66-3.65,1.29-7.9-.97-11.22-3.87-5.81-8.59-3.87-10.46-.07s.47,4.92,3.76,7.04c3.28,2.12,7.11,5.4,7.66,4.24h0Zm28.99-15.5s-.11-7.66-7.75-9.95c-7.64-2.29-8.45,2.7-8.42,5.5.03,2.8,7.28,4.51,9.74,4.55s6.43.75,6.43-.11h0Zm7.33-10.48c-.68,1.03-2.56-1.23-8.14-1.61-5.58-.38-7.11-3.97-5.57-6.78,1.54-2.81,4.89-4.1,9.47-1.74,4.58,2.35,4.23,10.16,4.23,10.16v-.03Zm-9.9-17.57c-.45,5.57,6.46,6.15,6.7,4.61.24-1.54-.61-7.42-3.35-7.62s-3.35,3.01-3.35,3.01h0Zm-20.83-10.09s.75-3.55,3.83-4.03,3.39,5.19,2.05,5.74-7.39,2.22-5.88-1.71Zm39.45,7.61s.46-4.02,2.35-5.66,5.14.51,5.39,4.03c.24,3.52-1.28,8.06-2.57,8.06s-5.55-2.1-5.17-6.42h0Zm9.62-7.75s.15-6.06,2.3-7.49,6.35-.14,6.62,5.92c.27,6.05-.83,6.85-4.27,6.01-3.44-.83-4.65-2.6-4.65-4.45h0Zm13.61-45.67s2.91-2.43,5.65-.51,3.62,6.87,2.22,8.37c-1.4,1.5-13.12,1.44-7.86-7.85h0Zm-24.59-1.94s2.84-5.88,7.38-7.86c.76,4.31-2.01,7.62-7.38,7.86Zm-31.52-10.12s6.97,1.33,8.51,4.03c1.54,2.7-4.89,4-7.93,2.12s-5.61-7.62-.58-6.15Zm-17.5-7.8c2.37-.64,4.9-.45,7.15.54,4.14,1.64,4.99,3.59,4.58,5.06s-3.53,1.68-7.04-.51c-3.52-2.19-5.57-3.04-4.69-5.08h0Zm59.09-7.07c2.78-.26,5.55.63,7.65,2.47,3.87,3.14,4.65,6.93,2.16,7.75-2.49.81-13.47-3.59-9.81-10.23h0Zm-116.51-226.4s4.47.89,10.46,5.95c5.99,5.06,11.42,2.61,11.42-5.19.06-3.58-.05-7.16-.35-10.73,0,0-14.11,2.49-21.53,9.98Zm120.86-29.79s10.46-8.96,21.6-6.01c11.14,2.94,24.69,29.53,27.01,35.69-1.87-18.03-7.53-54.02-28.85-56.48-9.37.34-12.17,7.86-19.76,26.8Zm6.34,319.33s.38-7.11,2.91-8.47,4.58.38,4.84,5.43c.26,5.06-7.44,10.09-7.75,3.04Z"/>
        <path class="cls-5" d="m411.64,240.11c2.45-2,5.81-2.47,8.72-1.23,5.26,2.05,8.27,11.84,5.26,19.56s-2.26,10.32-2.26,10.32c0,0-13.72-4.24-11.72-28.65Z"/>
        <path class="cls-13" d="m250.12,275.96l7.24-1.33-.97,5.37s-6.66-2.16-6.29-4.04h0Zm13.56-64.01c.46,4.34-1.94,10.2-3.8,14-3.16,6.23-7.27,11.93-12.17,16.9-12.06,12.23-27.78,18.85-45,14.91-15.95-3.65-29.14-12.68-37.54-26.81-5.81-9.74-9.49-22.82-8.08-34.2,3.21-25.87,20.84-31.33,44.2-25.12,6.91,1.94,13.58,4.66,19.87,8.1,10.43,5.7,20.29,12.4,29.42,20.01,4.25,3.48,8.62,7.22,12.53,11.08l.48.47.07.67h0Zm8.37-64.27s-23.87-15.5-35.89-31.45c-12.03-15.95-2.84-18.02,2.15-18.57-2.91-4.16-18.22-5.09-20.07,9.74-.34-3.07,1.3-8.72,1.3-8.72,0,0-51.28,3.14-85.74,60.57,4.2,5.81,4.38,6.97,4.38,6.97,0,0-21.05-26.72-42.93-31.75-21.88-5.03-39.52,12.3-43.89,39.25-4.38,26.95.66,38.35.66,38.35l17.53,6.78s-3.96-34.6,0-48.96c3.96-14.36,10.39-20.79,27.49-14.08,17.1,6.7,31.96,25.71,31.96,25.71,0,0-2.39.82-2.66,1.65s-6.3,17.5-.2,39.11c6.09,21.61,15.99,30.5,15.99,30.5,0,0,27.89.81,38.42,8.6,10.53,7.79,18.92,8.2,18.92,8.2,0,0-3.69,3.27-15.5-3.42-11.81-6.69-20.71-11.22-59.08-11.77,14.36,11.08,38.84,24.88,59.08,25.64,20.24.76,27.89-5.39,27.89-5.39l-1.54,4.34c5.08-4.99,12.74-6.64,13.06-6.87,0,0,.35-4.17,2.19-6.84s5.88-5.07,5.88-5.07c0,0-1.84,4.58-1.09,4.93s34.01-13.28,49.98-31.18c9.64-10.81,17.24-23.28,22.43-36.81l-3.01-4.1s-19.11,16.96-39.65,9.03c-24.13-9.33-13.37-49.97,11.95-54.43v.02ZM119.6,83.33c-11.97-18.08,1.12-29.93,17.65-36.81,0,0,42.94.14,69.87,14.22,26.94,14.08,44.64,39.22,44.64,39.22l-10.57-1.94s-7.31-11.35-20.57-1.5c-10.05.34-24,4.99-46.84,16.89-19.03-17.79-32.17-32.08-54.18-30.08Zm0,251.37c-6.71,13.65-3.29,31.62-3.29,31.62,0,0-5.46-14.91.07-28.99-13.12-1.78-27,5.81-24.68,30.84,2.32,25.03,22.15,23.58,22.15,23.58,0,0-2.04-4.72-1.94-8.2,8.34,22.97,25.3,32.27,36.81,35.41,11.51,3.14,41.02,1.23,55.65-3.14-13.4-10.26-13-33.9-8.72-44.65-15.04-.69-22.69,5.88-22.69,5.88,3.41-3.99,8.24-6.49,13.46-6.97-.34-5.81,6.7-15.86,16-21.19,9.3-5.33,26.33-19.08,28.65-27.12-7.46-2.04-20.65-.61-20.65-.61,0,0,4.58-2.91,19.15-1.71,14.57,1.19,29.53,13.88,49.63,18.4,20.1,4.52,44.79-1.7,54.77-7.18s12.32-5.2,12.32-5.2c0,0-5.61,3.87-5.47,4.58s17.54,0,20.34.78c2.8.78,4.58,6.22,11.01,6.62,6.43.41,7.58-7.11,6.78-9.43s-5.19-6.29-7.65-6.78c-2.46-.49-1.85-3.69,3.22-3.28,5.07.41,4.72,11.01,10.8,9.99,6.08-1.03,7.38-10.53,6.57-11.76s-12.45-8.62-11.62-11.22c.82-2.6,11.76-.97,14.08-1.7s3.96-6.78,0-11.01c-3.96-4.23-16-1.5-19.76-1.5s-7.97-3.08-6.97-6.84c.49,1.38,1.65,2.41,3.07,2.73-.15-.59-.35-1.18-.58-1.74-.58-1.61,1.16-3.24,2.39-7.42,1.23-4.17-5.12-5.39-8.54-6.62-3.42-1.23-10.26-1.16-8.72,3.76,1.54,4.92-.88,6.63-.88,6.63,0,0-5.13,0-5.13,2.32,2.74.75,6.78,5.33,6.78,5.33,0,0-12.51-7.45-23.25-10.26-10.73-2.81-31.59-1.12-42.11,5.17-10.52,6.3-17.23,8.54-25.5,8.27,3.3-.83,6.4-2.32,9.09-4.4,0,0-2.26.89-10.6-2.12-8.34-3.01-21.95-13.26-31.53-12.72-9.1.61-17.69,4.44-24.21,10.81-5.73,5.74-13.67,12.17-13.67,12.17,0,0,5.53-5.68,7.93-10.12-14.77,10.12-43.76,21.47-43.76,21.47,0,0-9.85,35.41-25.57,37.77-15.72,2.36-13.27-10.32-13.27-10.32l.04.07Zm-16.21-25.8s12.03,2.15,16.68,1.88c-2.39,7.24-4.92,22.46-10.25,23.41-5.33.95-15.5,1.58-6.43-25.29Zm-34.81-11.68s9.5,4.72,14.22,5.54c1.4,13.03,1.7,28.37,1.7,28.37,0,0-2.91,1.44-7.31,0-2.36-.67-4.56-1.78-6.5-3.27,0,0-.75-22.91-2.11-30.64Zm230.04-134.98c20.28,1.81,13.56-21.72,5.14-31.38,17.03,14.53,16.67,38.04,16.67,38.04-1.97,4.12-4.19,8.12-6.63,11.97-3.16,5.07-6.61,9.95-10.32,14.63l-3.07-4.23s2.66-5.27,1.3-16.62c-.86-7.11-2.2-10.7-3.08-12.4h0Zm-182.8-20.19c-5.78-3.5-11.44-6.42-17.36-8.72,0-2.77.32-13.34,1.73-25.41,1.64-14.08,15.72-27.62,33.22-21.47,17.5,6.15,38.97,28.31,38.97,28.31l-15.04,11.2s-17.33-20.14-29.81-21.19c-12.48-1.06-11.89,11.51-11.72,11.51v25.77h0Zm-51.55,221.08c2.07,2.45,5.01,4,8.2,4.31,5.68.76,8.72-.2,8.72-.2,0,0-2.91,19.37-12.72,20.72-9.81,1.35-11.96-5.81-4.23-24.82h.03Zm37.02-203.14s11.7,6.97,16.62,12.93c1.18,14.75,3.73,64.67,4.68,79.99-12.44-8.62-15.79-11.55-15.79-11.55,0,0-3.12-66.11-5.51-81.36h0Zm124.32,111.56c4.52-1.3,9.32-1.3,13.84,0,6.97,2.22,6.7,3.62,9.2,3.22s8.5-2.19,8.5-2.19c0,0,.45-3.59-2.46-3.39-2.91.2-11.49.28-13.64-1.3-1.32-1.06-2.15-2.61-2.3-4.3,0,0-7.24,3.49-8.95,3.38-1.7-.11-1.23-2.91-1.23-2.91-2.3,1.75-3.45,4.63-2.97,7.49Z"/>
        <path class="cls-1" d="m366.24,409.83s-.78-4.61,2.36-6.39c3.15-1.78,5.81-1.81,8.07-.75-4.31,2.15-5.13,3.83-5.4,6.6-.27,2.77,1.57,2.63,1.57,2.63,0,0-6.32,2.8-6.6-2.09Zm-18.05-277.39s19.77-12.85,41.16,5.27c-6.42-11.42-29.12-16.2-41.16-5.27Zm30.45,215.67c2.68-.09,5.31.74,7.45,2.35,3.8,2.73,4.58,4.84,4.58,4.84,0,0,1.74-3.65,3.87-7.69,1.28-2.41,3.48-4.19,6.09-4.96-1.51.77-2.51,2.28-2.63,3.97,4.38,3.55,5.74,10.39,8.2,11.83,2.46,1.43,3.15,1.09,3.15,1.09.75-2.47,2.26-4.64,4.3-6.22,3.22-2.26,3.76-3.01,3.76-3.01,0,0-7.75-7.24-4.1-13.56s10.46-18.46,4.03-30.35c-3.87-7.12-10-12.75-17.43-16,0,0,5.54,2.81,4.38,10.05-1.16,7.24-19.69,6.29-19.69,6.29,0,0,9.23,5.89,9.23,10.39,4.04,4.45,3.15,9.44.62,12.38-2.53,2.93-8.42,1.16-8.42,1.16,0,0-.58,5.43-3.83,6.57.27,4.92-3.55,10.84-3.55,10.84v.03Zm39.16-12.48l1.23.89s-.89,6.36,6.97,9.69c7.86,3.32,7.18-2.26,7.18-2.26,0,0,.27.28.27,3.63s-4.65,7.92-6.91,8.61-6.35,1.37-6.35,1.37c0,0,0-.27.34-2.53.34-2.26-2.39-5.27-4.84-10.6-2.45-5.33,2.12-8.72,2.12-8.72v-.09Zm3.76,23.63l5.81-2.53s.89,2.8,3.42,2.05c2.53-.75,6.15,1.3,6.15,1.3,0,0-3.62.14-3.96,7.04-.34,6.91,10.56,4.99,10.56,4.99,0,0-.27,1.23-4.45,4.11-4.17,2.88-8.27.81-12.51-1.38-4.24-2.19-5.06-15.58-5.06-15.58h.04Zm-14.02,3.65c5.88,1.64,12.3-3.15,12.3-3.15.2,1.52.27,3.05.21,4.58.07,4.31,3.49,11.69,8.88,14.53,5.39,2.84,8.55,9.85,8.55,9.85,0,0-.82-.27-3.49.54-2.66.81-3.87,8.82-3.87,8.82.05-3.88-1.66-7.57-4.65-10.05-5.12-4.5-14.42.97-14.42.97l-.2-8.47c-.2-8.47-3.28-17.57-3.28-17.57l-.03-.05Zm-44.65-14.31c1.03,17.92-4.17,24.61-4.17,24.61,0,0,5.2,11.62,3.97,19.42-1.23,7.8,3.28,15.31,3.28,15.31,0,0-1.23-5.06,6.56-6.42,7.79-1.37,7.86,7.65,7.86,7.65,0,0,.42-.68,4.51-.75s7.53,7.75,8.2,7.18c.68-.57,4.58-.82,4.58-.82,0,0,2.04-2.43.27-8.61-1.77-6.18-12.85-6.5-12.85-6.5,0,0,5.34-2.73,10.6.2,5.26,2.93,3.97,13.07,3.97,13.07,0,0,.41,3.87,3.28,4.23,2.88.36,7.75-1.16,7.75-1.16.11-2.22,1.04-4.32,2.61-5.9,2.66-2.8,4.65-.27,4.65-.27,0,0,.41-1.64-1.65-8-2.05-6.36-10.56-4.22-10.56-4.22,0,0,5.54-1.94,9.09-.81,3.55,1.12,4.72,9.69,4.72,9.69l1.03,2.53s-.34-1.94,1.16-6.42,5.81-2.67,5.81-2.67c0,0,.89-7.92-5.34-10.39-6.23-2.47-13.56,4.38-13.56,4.38,0,0-.69-10.53-2.05-20.79s-3.87-11.28-4.04-15.31c-.16-4.03-5.68-9.69-5.68-9.69,0,0-.07.07-1.3,2.66-1.23,2.6-1.23,9.09-10.73,9.03-9.5-.07-9.37-6.57-11.62-7.04-2.26-.47-10.39-4.17-10.39-4.17h.03Zm-29.4,100.01s4.04,5.06,9.69,6.15c3.53.64,7.15.57,10.65-.2,0,0-.62-5.2,2.91-7.46,3.53-2.26,4.78-1.57,4.78-1.57,0,0,1.99-6.91-5.46-8.2,4.23-1.3,8.47,6.7,8.47,6.7,0,0,11.28,1.94,15.18.41-3.49-5.88.82-10.05,4.45-9.3,1.09-6.35-3.87-15.8-13.88-12.51,7.18-2.32,11.21,0,13.4,3.15,1.27,1.68,1.98,3.71,2.05,5.81l2.6-.27s-.54-3.97,1.99-6.08c.83-.81,1.75-1.52,2.73-2.12,0,0-.88-11.15-6.35-13.12-5.47-1.98-15.25,4.72-19.62,3.34-4.38-1.38-5.61-13.12-6.57-23.79-.96-10.66-9.16-25.43-16.41-34.04-4.05-4.91-8.54-9.45-13.4-13.56l5.07,1.64s-1.94-.97-2.19-10.53c-9.57,4.38-25.69,9.33-39.65,7.8-2.32,8.89-1.65,26.39,2.6,37.6,5.88,3.55,15.58,13.74,15.58,13.74h8.61c2.63-1.1,5.63-.82,8,.76,4.17,2.66,3.22,6.22,3.22,6.22,2.05,1.57,3.18,4.06,3.01,6.63,0,2.24-.27,4.47-.84,6.63l1.12,1.94s9.16-3.55,11.77,4.93c2.61,8.48-2.91,18.66-6.23,20.17-3.32,1.5-4.45,1.5-4.45,1.5l-2.83,7.59.02.06Zm-113.7-33.68c-.18,1.46-.11,2.95.19,4.39-13-.07-23.53-10.65-25.23-24.14-1.7-13.48,1.58-28.2,8.72-33.43,7.14-5.23,14.19,4.2,14.19,4.2-1.3,4.48-2.24,9.05-2.8,13.68-1.16,8.61-2.12,15.5,2.26,23.45-2.74-5.13-1.37-20.18-1.37-20.18,4.4,2.35,9.2,3.86,14.15,4.45,8.2.97,11.83-3.62,11.83-13.46s-5.26-25.43-12.72-32.76c2.5-3.55,5.31-6.87,8.41-9.91,0,0,2.74,8.54,11.35,9.37,8.61.82,11.13-7.37,11.13-7.37,0,0,14.77,6.36,25.3,7.05-21.88,14.9-24.27,32.4-22.84,40.13-1.72.73-12.51,8.41-12.51,8.41,0,0,16-8.13,27.56-12,11.55-3.87,28.09,9.43,32.82,16.54-1.87.65-3.21,2.31-3.46,4.27,0,0-1.12-2.08-5.47-1.33-4.35.76-5.3,3.22-5.3,3.22,0,0-6.78-4.15-11.62-1.24-4.45-1.5-12.37-.47-12.3,8.07-2.91,5.81.1,8.58.1,8.58,0,0-6.39.14-2.91,7.75-3.12-.97-6.12,1.37-6.12,1.37,0,0-8.14.97-8.96,7.31-.55,3.61,1.23,7.16,4.45,8.89,0,0-.47,2.6,4.78,6.78,5.26,4.18,10.12-.14,10.12-.14,0,0-2.73,1.09-7.04-.15-4.31-1.24-5.26-6.42-5.26-6.42,0,0,7.31,1.64,8.06-5.68.56-4.1-1.44-8.13-5.06-10.15,0,0,1.68-1.23,4.72-.42,3.04.81,3.62,5.51,3.62,5.51,0,0-.3-3.15,2.36-4.11-1.01.06-2.03.03-3.04-.1,0,0-4.14-5.68-1.71-8.17,2.42-2.5,7.8,1.94,7.8,1.94,0,0-1.43-.21-4.3-4.17-2.87-3.96-.89-7.18-.89-7.18-.19,1.83.44,3.65,1.7,4.99,2.12,2.12,5.81,1.78,12.04-2.8,6.23-4.58,0-11.22,0-11.22,0,0,6.62-.69,8.72,2.66,2.09,3.35.48,9.58.48,9.58,0,0,.47-.07,1.37-1.78.89-1.71-.34-6.7-.34-6.7,0,0,1.37-5.26,6.69-4.3,5.33.96,6.84,9.23,6.84,9.23,0,0,.55-1.85-1.5-6.02-2.05-4.17.69-5.88.69-5.88,0,0,.81-1.16,7.38-1.5-2.26,1.16-4.1,7.86,3.28,10.53,7.38,2.66,9.99,1.03,11.49-3.76,4.31,4.1,1.16,11.96,1.16,11.96,0,0,2.53,5.81,3.96,9.69.14-4.92-1.43-6.49-1.43-6.49,0,0,7.31-1.85,9.69,2.91,2.37,4.76.69,17.43-8.34,20.34,2.46-7.75.07-10.53.07-10.53,0,0,1.94,6.15-6.42,20.34-8.36,14.19-29.68,25.99-44.31,23.8-14.63-2.19-22.42-20.34-27.07-22.84-4.65-2.5-11.62-3.42-23.38-11.89-11.76-8.47-15.73-23.25-15.73-23.25l-.03.09Zm69.61,23.74s10.46-14.42,23.92-16.54c13.46-2.12,16.96,7.52,14.7,18.46-2.26,10.94-18.95,25.27-30.1,26.94-11.15,1.67-23.45-3.87-8.54-28.85h.02Zm14.31-182.44c6.21,6.04,14.14,10.01,22.69,11.35-1.59,2.2-2,5.04-1.09,7.59-4.84-.32-11.37-.45-11.37-.45-.02-1.66-.59-3.27-1.62-4.58-4.14-5.43-15.93.2-15.93.2,2.42-.76,15.69-5.41,15.59,4.68,0,0-11.69.9-21.06,5-4.8,2.01-9.46,4.34-13.95,6.97l-1.09-.97s10.8-9.78,15.18-16.82c4.38-7.04,10.26-5.06,12.65-12.99h0Zm19.82-28.09c-2.4-.06-13.13,2.47-15.73,12.79,1.7-3.42,5.63-7.22,5.88-7.18s.77.89,4.36,4.01c-2.73,5.81-4.16,11.78-1.76,24.63-7.61-4.04-23.85-17.33-23.85-17.33,6.27-6.87,11.73-14.45,16.27-22.57,7.24-13.12,16.95-51,11.34-70.7-5.61-19.7-31.58-35.96-31.58-35.96,0,0,5.47-5.34,15.5-4.24,10.02,1.09,6.83,8.07,17.37,8.07s6.07-20.84,6.07-20.84c2.34-1.29,5.05-1.77,7.69-1.38,4.38.84,8.85.92,11.62.2-6.49.97-9.69-1.16-9.69-1.16,0,0,4.31-.97,7.86-6.22,3.55-5.25,3.62-12.65,9.37-10.88,5.74,1.77,1.03,16.47,1.03,16.47,0,0,13.4-4.84,19.22-10.12,5.81-5.28,14.69-2.46,10.65,4.23-4.04,6.69-12.17,8.72-12.17,8.72,2.13,6.37,17.43-4.84,20.72-6.91,8.14-5.06,10.19-4.84,10.81-.55s-13.34,13.56-13.34,13.56c0,0,24.21,2.73,54.42,35.84,30.21,33.11,26.15,57.57,26.15,57.57,0,0-2.91-3.42-9.78-5.34-4.44-1.12-9.07-1.24-13.56-.34,6.57.08,13.02,1.82,18.74,5.06,9.57,5.4,5.61,15.18,5.61,15.18,0,0-8.48-11.96-21.07-12.92-12.58-.96-15.99,3.28-15.99,3.28,0,0,4.3-2.39,14.22-1.43,9.92.96,22.35,9.5,24.34,19.14-14.91-8.96-35.08-11.76-48.75-9.69-13.67,2.07-21.69,23.97-14.82,46.12,6.87,22.15,33.3,20.34,33.77,20.34s-5.95,3.28-11.62,3.96c-5.68.68-22.85-2-36.1-8.41-13.25-6.4-37.6-15.65-46.97-19.07-9.38-3.42-28.27-14.31-34.94-21.03,2.71-1.97,5.63-3.62,8.72-4.92h0Zm67.06,18.75l.72.05.41-.59c1.36-2.06,2.57-4.21,3.64-6.44,2.68-5.45,4.78-11.16,6.27-17.05,4.79-18.75,2.96-38.58-5.17-56.14-6.78-14.9-18.85-26.93-36.35-24.29-4.49.7-8.8,2.25-12.72,4.56-8.93,5.19-16.87,14.64-18.17,25.18-1.86,15.03-2.62,30.99,4.11,45.06,10.51,21.94,34.82,28.39,57.25,29.66h.02Zm20-138.5s19.56,10.65,32.27,23.8c12.72,13.14,16.82,21.6,16.82,21.6,0,0,8.2-8.47,11.49-25.02,3.28-16.54-.55-23.66-.55-23.66,0,0-13.81-29.12-25.18-30.49-11.37-1.37-21,7.52-21,7.52,0,0-9.3,25.18-13.81,26.26h-.04Zm-134.2,1.18s-2.6-30.23-12.17-51.69c-9.57-21.46-24.57-39-31.46-41.3,14.96,13.72,22.86,33.5,25.47,52.92,2.62,19.42,1.78,32.48,1.78,32.48l10.39,5.12-2.26-8.34c2.15,1.69,3.86,3.87,4.99,6.36,1.94,4.16,1.94,4.23,1.94,4.23l1.31.21Z"/>
        <path class="cls-11" d="m280.73,130.55c2.43,0,5.13,3.14,6.02,7.01.89,3.87-.36,7-2.79,7s-5.14-3.12-6.05-6.99.36-7.01,2.8-7.01h.02Zm89.11,55.39c2-1.6,6.13.25,9.21,4.12,3.08,3.86,3.95,8.31,1.94,9.91-2.01,1.6-6.13-.24-9.21-4.12s-3.95-8.31-1.94-9.91Zm-138.75,17.39c4.59,0,8.31,2.74,8.31,6.12s-3.72,6.12-8.31,6.12-8.3-2.74-8.3-6.12,3.72-6.12,8.3-6.12Z"/>
        <path class="cls-9" d="m359.11,268.5c2.64-.28,5.3.1,7.75,1.12,2.36.89,4.56,2.17,6.49,3.8,0,0,1.09-5.4-4.03-7.31s-7.99-.69-10.21,2.39Z"/>
        <path class="cls-9" d="m396.31,290.9c1.32,2.3,2.05,4.9,2.12,7.55-.14,3.76-1.2,5.39-1.2,5.39,0,0,5.54-1.16,5.81-6.29s-6.19-7.42-6.73-6.66Z"/>
        <path class="cls-9" d="m393.74,319.54s-.47,4.84-3.35,7.28c-2.88,2.44-4.1,2.13-4.1,2.13,0,0,4.78,2.69,7.65-.86,2.87-3.55-.2-8.55-.2-8.55Z"/>
        <path class="cls-9" d="m380.22,327.6c.6,3.46-.37,7.07-1.94,8.96,0,0,3.87-.69,5.23-2.91s.4-5.05-3.29-6.05Z"/>
        <path class="cls-3" d="m241.21,173.25s-1.09-18.73,18.73-27.49c-11.76,1.5-21.06,10.81-18.73,27.49Z"/>
        <path class="cls-3" d="m148.84,194.1s-7.38-22.97,16.41-27.76c-10.34,4.34-18.09,11.01-16.41,27.76Z"/>
        <path class="cls-3" d="m140.37,172.55s-2.22,8.31-7.49,10.08c7.55.2,8.16-8.47,7.49-10.08Z"/>
      </g>
    </g>
  </g>
</svg>